<svg width="402" height="140" viewBox="0 0 402 140" fill="none" xmlns="http://www.w3.org/2000/svg">
<rect width="60" height="25" fill="#FCB709"/>
<rect y="60" width="60" height="25" transform="rotate(-90 0 60)" fill="#FCB709"/>
<rect y="140" width="60" height="25" transform="rotate(-90 0 140)" fill="#FCB709"/>
<rect x="60" y="140" width="60" height="25" transform="rotate(-180 60 140)" fill="#FCB709"/>
<rect x="140" width="60" height="25" transform="rotate(90 140 0)" fill="#FCB709"/>
<rect x="80" width="60" height="25" fill="#FCB709"/>
<rect x="140" y="140" width="60" height="25" transform="rotate(-180 140 140)" fill="#FCB709"/>
<rect x="140" y="80" width="60" height="25" transform="rotate(90 140 80)" fill="#FCB709"/>
<path d="M81.1776 35.1818H100.132V79.9091C100.132 85.2273 98.8594 89.8295 96.3139 93.7159C93.7912 97.5795 90.2685 100.568 85.7457 102.682C81.223 104.773 75.973 105.818 69.9957 105.818C63.973 105.818 58.7003 104.773 54.1776 102.682C49.6548 100.568 46.1321 97.5795 43.6094 93.7159C41.1094 89.8295 39.8594 85.2273 39.8594 79.9091V35.1818H58.8139V78.2727C58.8139 80.4318 59.2912 82.3636 60.2457 84.0682C61.2003 85.75 62.5185 87.0682 64.2003 88.0227C65.9048 88.9773 67.8366 89.4545 69.9957 89.4545C72.1776 89.4545 74.1094 88.9773 75.7912 88.0227C77.473 87.0682 78.7912 85.75 79.7457 84.0682C80.7003 82.3636 81.1776 80.4318 81.1776 78.2727V35.1818Z" fill="black"/>
<path d="M200.358 46.4545H212.994V76.2727C212.994 79.8182 212.146 82.8864 210.449 85.4773C208.767 88.053 206.419 90.0455 203.403 91.4545C200.388 92.8485 196.888 93.5455 192.903 93.5455C188.888 93.5455 185.373 92.8485 182.358 91.4545C179.343 90.0455 176.994 88.053 175.312 85.4773C173.646 82.8864 172.812 79.8182 172.812 76.2727V46.4545H185.449V75.1818C185.449 76.6212 185.767 77.9091 186.403 79.0455C187.04 80.1667 187.919 81.0455 189.04 81.6818C190.176 82.3182 191.464 82.6364 192.903 82.6364C194.358 82.6364 195.646 82.3182 196.767 81.6818C197.888 81.0455 198.767 80.1667 199.403 79.0455C200.04 77.9091 200.358 76.6212 200.358 75.1818V46.4545ZM219.182 93V86L241.182 56.6364H219.273V46.4545H257.273V53.4545L235.273 82.8182H257.182V93H219.182ZM263.438 93V46.4545H283.619C287.165 46.4545 290.142 46.9318 292.551 47.8864C294.975 48.8409 296.801 50.1894 298.028 51.9318C299.271 53.6742 299.892 55.7273 299.892 58.0909C299.892 59.803 299.513 61.3636 298.756 62.7727C298.013 64.1818 296.968 65.3636 295.619 66.3182C294.271 67.2576 292.695 67.9091 290.892 68.2727V68.7273C292.892 68.803 294.71 69.3106 296.347 70.25C297.983 71.1742 299.286 72.4545 300.256 74.0909C301.225 75.7121 301.71 77.6212 301.71 79.8182C301.71 82.3636 301.044 84.6288 299.71 86.6136C298.392 88.5985 296.513 90.1591 294.074 91.2955C291.634 92.4318 288.725 93 285.347 93H263.438ZM276.074 82.9091H281.983C284.104 82.9091 285.695 82.5152 286.756 81.7273C287.816 80.9242 288.347 79.7424 288.347 78.1818C288.347 77.0909 288.097 76.1667 287.597 75.4091C287.097 74.6515 286.384 74.0758 285.46 73.6818C284.551 73.2879 283.453 73.0909 282.165 73.0909H276.074V82.9091ZM276.074 65.2727H281.256C282.362 65.2727 283.339 65.0985 284.188 64.75C285.036 64.4015 285.695 63.9015 286.165 63.25C286.65 62.5833 286.892 61.7727 286.892 60.8182C286.892 59.3788 286.377 58.2803 285.347 57.5227C284.316 56.75 283.013 56.3636 281.438 56.3636H276.074V65.2727ZM346.46 46.4545V93H335.915L319.097 68.5455H318.824V93H306.188V46.4545H316.915L333.46 70.8182H333.824V46.4545H346.46ZM352.438 93V46.4545H372.619C376.165 46.4545 379.142 46.9318 381.551 47.8864C383.975 48.8409 385.801 50.1894 387.028 51.9318C388.271 53.6742 388.892 55.7273 388.892 58.0909C388.892 59.803 388.513 61.3636 387.756 62.7727C387.013 64.1818 385.968 65.3636 384.619 66.3182C383.271 67.2576 381.695 67.9091 379.892 68.2727V68.7273C381.892 68.803 383.71 69.3106 385.347 70.25C386.983 71.1742 388.286 72.4545 389.256 74.0909C390.225 75.7121 390.71 77.6212 390.71 79.8182C390.71 82.3636 390.044 84.6288 388.71 86.6136C387.392 88.5985 385.513 90.1591 383.074 91.2955C380.634 92.4318 377.725 93 374.347 93H352.438ZM365.074 82.9091H370.983C373.104 82.9091 374.695 82.5152 375.756 81.7273C376.816 80.9242 377.347 79.7424 377.347 78.1818C377.347 77.0909 377.097 76.1667 376.597 75.4091C376.097 74.6515 375.384 74.0758 374.46 73.6818C373.551 73.2879 372.453 73.0909 371.165 73.0909H365.074V82.9091ZM365.074 65.2727H370.256C371.362 65.2727 372.339 65.0985 373.188 64.75C374.036 64.4015 374.695 63.9015 375.165 63.25C375.65 62.5833 375.892 61.7727 375.892 60.8182C375.892 59.3788 375.377 58.2803 374.347 57.5227C373.316 56.75 372.013 56.3636 370.438 56.3636H365.074V65.2727Z" fill="black"/>
</svg>
