<svg width="140" height="140" viewBox="0 0 140 140" fill="none" xmlns="http://www.w3.org/2000/svg">
<rect width="60" height="25" fill="#FCB709"/>
<rect y="60" width="60" height="25" transform="rotate(-90 0 60)" fill="#FCB709"/>
<rect y="140" width="60" height="25" transform="rotate(-90 0 140)" fill="#FCB709"/>
<rect x="60" y="140" width="60" height="25" transform="rotate(-180 60 140)" fill="#FCB709"/>
<rect x="140" width="60" height="25" transform="rotate(90 140 0)" fill="#FCB709"/>
<rect x="80" width="60" height="25" fill="#FCB709"/>
<rect x="140" y="140" width="60" height="25" transform="rotate(-180 140 140)" fill="#FCB709"/>
<rect x="140" y="80" width="60" height="25" transform="rotate(90 140 80)" fill="#FCB709"/>
<path d="M81.1776 35.1818H100.132V79.9091C100.132 85.2273 98.8594 89.8295 96.3139 93.7159C93.7912 97.5795 90.2685 100.568 85.7457 102.682C81.223 104.773 75.973 105.818 69.9957 105.818C63.973 105.818 58.7003 104.773 54.1776 102.682C49.6548 100.568 46.1321 97.5795 43.6094 93.7159C41.1094 89.8295 39.8594 85.2273 39.8594 79.9091V35.1818H58.8139V78.2727C58.8139 80.4318 59.2912 82.3636 60.2457 84.0682C61.2003 85.75 62.5185 87.0682 64.2003 88.0227C65.9048 88.9773 67.8366 89.4545 69.9957 89.4545C72.1776 89.4545 74.1094 88.9773 75.7912 88.0227C77.473 87.0682 78.7912 85.75 79.7457 84.0682C80.7003 82.3636 81.1776 80.4318 81.1776 78.2727V35.1818Z" fill="black"/>
</svg>
